<svg width="28" height="31" viewBox="0 0 28 31" fill="none" xmlns="http://www.w3.org/2000/svg">
<path d="M18.33 30H9.65997V17C9.65997 15.9 10.56 15 11.66 15H16.33C17.44 15 18.33 15.9 18.33 17V30ZM18.33 30L18.33 22H25C26.1 22 27 22.9 27 24V30H18.33ZM9.67 19H3C1.9 19 1 19.9 1 21V30H9.67V19ZM14.8676 1.71693L15.7496 3.49971C15.8661 3.75199 16.1823 3.98745 16.4485 4.02109L18.046 4.29019C19.0611 4.45838 19.3107 5.21519 18.5785 5.93839L17.3305 7.1998C17.1141 7.41844 16.9976 7.82211 17.0642 8.10802L17.4137 9.65537C17.6965 10.8831 17.0476 11.3541 15.9826 10.715L14.4849 9.82357C14.2187 9.65538 13.7694 9.65538 13.5031 9.82357L12.0054 10.715C10.9404 11.3541 10.2915 10.8831 10.5744 9.65537L10.9238 8.10802C10.9904 7.82211 10.8739 7.40162 10.6576 7.1998L9.42615 5.95523C8.69396 5.21521 8.92693 4.47516 9.95865 4.30698L11.5561 4.03792C11.8224 3.98747 12.1386 3.75201 12.2551 3.51655L13.137 1.73371C13.6196 0.758227 14.3851 0.758262 14.8676 1.71693Z" stroke="#192348" stroke-width="1.5" stroke-linecap="round" stroke-linejoin="round"/>
</svg>
