<svg width="28" height="30" viewBox="0 0 28 30" fill="none" xmlns="http://www.w3.org/2000/svg">
<path d="M10 17.254C10 18.7761 11.5968 20.0001 14 20.0001M14 20.0001C16.4032 20.0001 17.984 18.933 17.984 17.5992C17.984 16.1712 16 15.5001 14 14.5001C11.821 13.4106 10.016 12.8446 10.016 11.4009C10.016 10.0828 11.5 9.00006 14 9.00006M14 20.0001L14 22.0001M14 9.00006C16.5 9.00006 18 10.224 18 11.7461M14 9.00006L14 7.00006M26.9854 13.7639C26.9854 20.6133 21.8087 27.0285 14.7364 28.9055C14.2552 29.0315 13.7302 29.0315 13.249 28.9055C6.17665 27.0285 1 20.6133 1 13.7639V7.61477C1 6.46619 1.90411 5.16354 3.02694 4.72932L11.1492 1.53577C12.9719 0.82141 15.028 0.82141 16.8508 1.53577L24.9731 4.72932C26.0813 5.16354 27 6.46619 27 7.61477L26.9854 13.7639Z" stroke="#192348" stroke-width="1.5" stroke-linecap="round" stroke-linejoin="round"/>
</svg>
