<svg width="30" height="30" viewBox="0 0 30 30" fill="none" xmlns="http://www.w3.org/2000/svg">
<path d="M27.0537 26.2534L27.6091 26.7574L27.6094 26.7571L27.0537 26.2534ZM24.867 27.8267L24.5826 27.1328L24.5785 27.1344L24.867 27.8267ZM13.3337 24.7201L12.8913 25.3257L12.8922 25.3264L13.3337 24.7201ZM8.96033 20.9867L8.42741 21.5145L8.43256 21.5196L8.96033 20.9867ZM5.24033 16.6267L4.63146 17.0647L4.634 17.0682L5.24033 16.6267ZM2.62699 12.0801L1.93576 12.3711L1.93669 12.3733L2.62699 12.0801ZM2.14699 5.14675L2.84336 5.4253L2.84492 5.42134L2.14699 5.14675ZM3.68033 2.92008L4.19499 3.46563L4.20079 3.46016L4.20646 3.45457L3.68033 2.92008ZM7.53366 1.90675L7.20907 2.58297L7.21937 2.58772L7.53366 1.90675ZM8.42699 2.65341L7.81031 3.08035L7.81531 3.08739L8.42699 2.65341ZM11.5203 7.01341L10.9086 7.44741L10.9117 7.45164L11.5203 7.01341ZM12.0537 7.94675L11.3594 8.23076L11.3643 8.24219L12.0537 7.94675ZM11.9603 9.70675L11.3197 9.31679L11.3134 9.32715L11.3074 9.3377L11.9603 9.70675ZM11.2137 10.6534L10.6833 10.1231L10.6782 10.1282L10.6732 10.1334L11.2137 10.6534ZM10.2003 11.7067L10.7307 12.2371L10.7358 12.2319L10.7408 12.2267L10.2003 11.7067ZM10.027 12.5467L9.29939 12.7286L9.30975 12.7701L9.32475 12.8101L10.027 12.5467ZM10.1337 12.8134L9.42215 13.0506L9.44326 13.1139L9.47524 13.1726L10.1337 12.8134ZM11.3737 14.5201L10.8011 15.0046L10.8065 15.0109L11.3737 14.5201ZM13.307 16.6267L12.7716 17.152L12.7766 17.1571L12.7816 17.162L13.307 16.6267ZM15.427 18.5867L14.9416 19.1585L14.9425 19.1593L15.427 18.5867ZM17.147 19.8134L16.7961 20.4763L16.8314 20.4949L16.8684 20.5098L17.147 19.8134ZM17.387 19.9201L17.0916 20.6094L17.1075 20.6163L17.1236 20.6223L17.387 19.9201ZM18.267 19.7467L17.7402 19.2129L17.7367 19.2164L18.267 19.7467ZM19.2803 18.7467L19.8071 19.2806L19.8107 19.2771L19.2803 18.7467ZM20.2403 18.0001L20.5872 18.665L20.6092 18.6536L20.6303 18.6407L20.2403 18.0001ZM22.9337 18.4134L23.3678 17.8019L23.3617 17.7975L23.3554 17.7932L22.9337 18.4134ZM27.347 21.5467L26.9128 22.1583L26.9201 22.1634L27.347 21.5467ZM28.0803 22.4001L28.7767 22.1215L28.7719 22.1097L28.7668 22.098L28.0803 22.4001ZM23.3337 6.66675H24.0837C24.0837 6.25253 23.7479 5.91675 23.3337 5.91675V6.66675ZM22.5837 13.0667C22.5837 13.481 22.9194 13.8167 23.3337 13.8167C23.7479 13.8167 24.0837 13.481 24.0837 13.0667H22.5837ZM16.9337 5.91675C16.5194 5.91675 16.1837 6.25253 16.1837 6.66675C16.1837 7.08096 16.5194 7.41675 16.9337 7.41675V5.91675ZM27.667 2.33337H28.417C28.417 1.91916 28.0812 1.58337 27.667 1.58337V2.33337ZM26.917 8.73337C26.917 9.14759 27.2528 9.48337 27.667 9.48337C28.0812 9.48337 28.417 9.14759 28.417 8.73337H26.917ZM21.267 1.58337C20.8528 1.58337 20.517 1.91916 20.517 2.33337C20.517 2.74759 20.8528 3.08337 21.267 3.08337V1.58337ZM27.5437 23.4401C27.5437 23.8076 27.4623 24.1917 27.2821 24.5732L28.6385 25.2137C28.9117 24.6351 29.0437 24.0326 29.0437 23.4401H27.5437ZM27.2821 24.5732C27.0852 24.9902 26.8322 25.3809 26.4979 25.7498L27.6094 26.7571C28.0485 26.2726 28.3821 25.7567 28.6385 25.2137L27.2821 24.5732ZM26.4982 25.7494C25.911 26.3966 25.2808 26.8466 24.5826 27.1328L25.1514 28.5207C26.0798 28.1402 26.8897 27.5502 27.6091 26.7574L26.4982 25.7494ZM24.5785 27.1344C23.8734 27.4283 23.1051 27.5834 22.267 27.5834V29.0834C23.2955 29.0834 24.2606 28.8919 25.1555 28.5191L24.5785 27.1344ZM22.267 27.5834C21.0256 27.5834 19.6723 27.2913 18.2143 26.6701L17.6263 28.0501C19.235 28.7355 20.7884 29.0834 22.267 29.0834V27.5834ZM18.2143 26.6701C16.7385 26.0413 15.2542 25.1906 13.7751 24.1138L12.8922 25.3264C14.4531 26.4629 16.0355 27.3722 17.6263 28.0501L18.2143 26.6701ZM13.776 24.1144C12.2736 23.017 10.8487 21.8014 9.48809 20.4539L8.43256 21.5196C9.84524 22.9187 11.327 24.1831 12.8913 25.3257L13.776 24.1144ZM9.49321 20.459C8.14549 19.0982 6.93022 17.6736 5.84665 16.1853L4.634 17.0682C5.76376 18.6199 7.02849 20.102 8.42744 21.5145L9.49321 20.459ZM5.84918 16.1888C4.78224 14.7055 3.93189 13.2337 3.3173 11.7869L1.93669 12.3733C2.60209 13.9398 3.51175 15.508 4.63147 17.0647L5.84918 16.1888ZM3.31822 11.789C2.7098 10.344 2.41699 8.98974 2.41699 7.72008H0.916992C0.916992 9.22375 1.26419 10.7761 1.93577 12.3711L3.31822 11.789ZM2.41699 7.72008C2.41699 6.9023 2.56113 6.13083 2.84335 5.42529L1.45063 4.86821C1.09285 5.76266 0.916992 6.72453 0.916992 7.72008H2.41699ZM2.84492 5.42134C3.12205 4.71696 3.56357 4.06131 4.19499 3.46563L3.16566 2.37454C2.38375 3.11219 1.81193 3.94987 1.44907 4.87215L2.84492 5.42134ZM4.20646 3.45457C4.94659 2.72601 5.69886 2.41675 6.45366 2.41675V0.916748C5.23512 0.916748 4.12073 1.43416 3.15419 2.38559L4.20646 3.45457ZM6.45366 2.41675C6.72197 2.41675 6.98347 2.47458 7.20911 2.58289L7.85821 1.23061C7.41719 1.01892 6.93202 0.916748 6.45366 0.916748V2.41675ZM7.21937 2.58772C7.45461 2.69629 7.65281 2.85276 7.81035 3.08032L9.04364 2.22651C8.72118 1.76074 8.30604 1.4372 7.84795 1.22578L7.21937 2.58772ZM7.81531 3.08739L10.9086 7.44739L12.132 6.57943L9.03868 2.21943L7.81531 3.08739ZM10.9117 7.45164C11.1245 7.74724 11.2661 8.00245 11.3595 8.23072L12.7478 7.66277C12.6012 7.30437 12.3961 6.94626 12.129 6.57519L10.9117 7.45164ZM11.3643 8.24219C11.4551 8.45397 11.4903 8.6325 11.4903 8.76008H12.9903C12.9903 8.381 12.8923 7.99953 12.743 7.65131L11.3643 8.24219ZM11.4903 8.76008C11.4903 8.92911 11.4421 9.11561 11.3197 9.31679L12.601 10.0967C12.8519 9.68455 12.9903 9.23105 12.9903 8.76008H11.4903ZM11.3074 9.3377C11.176 9.57026 10.9693 9.83707 10.6833 10.1231L11.744 11.1837C12.098 10.8298 12.398 10.4566 12.6132 10.0758L11.3074 9.3377ZM10.6732 10.1334L9.65983 11.1868L10.7408 12.2267L11.7542 11.1734L10.6732 10.1334ZM9.67 11.1764C9.37107 11.4753 9.23699 11.8449 9.23699 12.2401H10.737C10.737 12.2258 10.7381 12.2188 10.7384 12.2173C10.7386 12.2162 10.7381 12.2192 10.7359 12.2247C10.7337 12.2303 10.731 12.2353 10.7287 12.2387C10.7264 12.242 10.7263 12.2414 10.7307 12.2371L9.67 11.1764ZM9.23699 12.2401C9.23699 12.4178 9.26041 12.5727 9.29939 12.7286L10.7546 12.3648C10.7402 12.3074 10.737 12.2757 10.737 12.2401H9.23699ZM9.32475 12.8101C9.35131 12.8809 9.37798 12.943 9.3946 12.9823C9.41377 13.0276 9.41937 13.0422 9.42215 13.0506L10.8452 12.5762C10.8213 12.5046 10.7935 12.4392 10.7761 12.3979C10.756 12.3505 10.7427 12.3192 10.7292 12.2834L9.32475 12.8101ZM9.47524 13.1726C9.75068 13.6775 10.2012 14.2955 10.8011 15.0045L11.9462 14.0356C11.3728 13.358 10.9966 12.8293 10.7921 12.4543L9.47524 13.1726ZM10.8065 15.0109C11.4142 15.713 12.0649 16.4317 12.7716 17.152L13.8423 16.1015C13.1624 15.4085 12.5332 14.7138 11.9408 14.0293L10.8065 15.0109ZM12.7816 17.162C13.5077 17.8746 14.2154 18.5419 14.9416 19.1585L15.9124 18.015C15.2252 17.4316 14.5463 16.7922 13.8323 16.0915L12.7816 17.162ZM14.9425 19.1593C15.6581 19.7647 16.2773 20.2016 16.7961 20.4763L17.4979 19.1506C17.11 18.9452 16.5826 18.5821 15.9114 18.0142L14.9425 19.1593ZM16.8684 20.5098C16.8819 20.5152 16.9021 20.5241 16.9445 20.5435C16.9818 20.5606 17.0345 20.585 17.0916 20.6094L17.6824 19.2307C17.6462 19.2152 17.6122 19.1995 17.5695 19.1799C17.5319 19.1627 17.4787 19.1383 17.4255 19.1171L16.8684 20.5098ZM17.1236 20.6223C17.3399 20.7034 17.5422 20.7234 17.7203 20.7234V19.2234C17.6877 19.2234 17.6699 19.2216 17.661 19.2202C17.6534 19.2191 17.651 19.2181 17.6503 19.2178L17.1236 20.6223ZM17.7203 20.7234C18.1565 20.7234 18.5177 20.5567 18.7973 20.2771L17.7367 19.2164C17.7282 19.2249 17.7236 19.2281 17.7232 19.2284C17.723 19.2285 17.7254 19.2269 17.7298 19.2251C17.7318 19.2242 17.7337 19.2235 17.7353 19.223C17.7369 19.2226 17.7378 19.2224 17.7378 19.2224C17.7377 19.2224 17.7365 19.2226 17.7337 19.2229C17.731 19.2231 17.7266 19.2234 17.7203 19.2234V20.7234ZM18.7938 20.2806L19.8071 19.2806L18.7535 18.2129L17.7402 19.2129L18.7938 20.2806ZM19.8107 19.2771C20.1137 18.9741 20.3725 18.777 20.5872 18.665L19.8934 17.3351C19.4948 17.5431 19.1137 17.8528 18.75 18.2164L19.8107 19.2771ZM20.6303 18.6407C20.8342 18.5166 21.0075 18.4701 21.187 18.4701V16.9701C20.6999 16.9701 20.2598 17.1102 19.8504 17.3594L20.6303 18.6407ZM21.187 18.4701C21.3304 18.4701 21.5008 18.4994 21.7164 18.5876L22.2843 17.1993C21.9132 17.0474 21.5503 16.9701 21.187 16.9701V18.4701ZM21.7164 18.5876C21.9467 18.6818 22.2064 18.8259 22.5119 19.0336L23.3554 17.7932C22.9942 17.5476 22.6406 17.345 22.2843 17.1993L21.7164 18.5876ZM22.4995 19.025L26.9128 22.1583L27.7812 20.9352L23.3678 17.8019L22.4995 19.025ZM26.9201 22.1634C27.1703 22.3366 27.3109 22.5137 27.3938 22.7021L28.7668 22.098C28.5564 21.6198 28.2171 21.2369 27.7739 20.9301L26.9201 22.1634ZM27.384 22.6786C27.4899 22.9434 27.5437 23.1816 27.5437 23.4401H29.0437C29.0437 22.9519 28.9374 22.5234 28.7767 22.1215L27.384 22.6786ZM22.5837 6.66675V13.0667H24.0837V6.66675H22.5837ZM23.3337 5.91675H16.9337V7.41675H23.3337V5.91675ZM26.917 2.33337V8.73337H28.417V2.33337H26.917ZM27.667 1.58337H21.267V3.08337H27.667V1.58337Z" fill="#192348"/>
</svg>
