<svg width="31" height="31" viewBox="0 0 31 31" fill="none" xmlns="http://www.w3.org/2000/svg">
<path d="M10.1733 28.3334H23.6533C26.4133 28.3334 28.6667 26.08 28.6667 23.32V21.7333H26.1333C24.6933 21.7333 23.3733 20.68 23.2533 19.24C23.1733 18.4 23.4933 17.6133 24.0533 17.0667C24.5467 16.56 25.2267 16.2667 25.9733 16.2667H28.6667V14.3467C28.6667 11.5867 26.4133 9.33335 23.6533 9.33335H8.34665C5.58665 9.33335 3.33333 11.5867 3.33333 14.3467V20.1734M10.1733 28.3334C10.5867 27.9867 10.9467 27.56 11.2267 27.08C11.72 26.28 12 25.3334 12 24.3334C12 21.3867 9.61333 19 6.66666 19C5.41333 19 4.25333 19.44 3.33333 20.1734M10.1733 28.3334C9.24 29.1734 8.01333 29.6667 6.66666 29.6667C4.72 29.6667 3.02666 28.6267 2.10666 27.08C1.61333 26.28 1.33333 25.3334 1.33333 24.3334C1.33333 22.6534 2.10666 21.1467 3.33333 20.1734M3.33333 15.5467V9.45341C3.33333 7.86674 4.30666 6.45335 5.78666 5.89335L16.3733 1.89335C18.0267 1.26669 19.8 2.49339 19.8 4.26673V9.33338M9.33333 15H18.6667M4.58854 24.3327L5.90852 25.6527L8.74853 23.0261M30.0784 17.6269V20.3736C30.0784 21.107 29.4917 21.7069 28.7451 21.7336H26.1317C24.6917 21.7336 23.3717 20.6803 23.2517 19.2403C23.1717 18.4003 23.4917 17.6136 24.0517 17.0669C24.5451 16.5602 25.2251 16.2669 25.9717 16.2669H28.7451C29.4917 16.2936 30.0784 16.8936 30.0784 17.6269Z" stroke="#2C816E" stroke-width="1.5" stroke-linecap="round" stroke-linejoin="round"/>
</svg>
